<svg xmlns="http://www.w3.org/2000/svg" xmlns:xlink="http://www.w3.org/1999/xlink" width="55" zoomAndPan="magnify" viewBox="0 0 41.25 27.749999" height="37" preserveAspectRatio="xMidYMid meet" version="1.0"><defs><clipPath id="4b143cdffe"><path d="M 1 0.125 L 35 0.125 L 35 25 L 1 25 Z M 1 0.125 " clip-rule="nonzero"/></clipPath></defs><g clip-path="url(#4b143cdffe)"><path fill="#afdc34" d="M 1.570312 23.859375 C 1.570312 23.859375 9.132812 12.289062 21.726562 10.8125 C 21.726562 10.8125 10 16.578125 5.046875 24.515625 C 30.878906 28.183594 34.480469 0.152344 34.480469 0.152344 C 3.695312 1.945312 1.570312 23.859375 1.570312 23.859375 " fill-opacity="1" fill-rule="nonzero"/><path fill="#afdc34" d="M 1.570312 23.859375 C 1.570312 23.859375 9.132812 12.289062 21.726562 10.8125 C 21.726562 10.8125 10 16.578125 5.046875 24.515625 C 30.878906 28.183594 34.480469 0.152344 34.480469 0.152344 C 3.695312 1.945312 1.570312 23.859375 1.570312 23.859375 " fill-opacity="1" fill-rule="nonzero"/></g></svg>